Coordinates
version=1
nRows=8
nColumns=36
inDegrees=yes

Units are S.I. units (second, meters, Newtons, ...)
If the header above contains a line with 'inDegrees', this indicates whether rotational values are in degrees (yes) or radians (no).

endheader
time	pelvis_tilt	pelvis_list	pelvis_rotation	pelvis_tx	pelvis_ty	pelvis_tz	hip_flexion_r	hip_adduction_r	hip_rotation_r	knee_angle_r	knee_angle_r_beta	ankle_angle_r	subtalar_angle_r	mtp_angle_r	hip_flexion_l	hip_adduction_l	hip_rotation_l	knee_angle_l	knee_angle_l_beta	ankle_angle_l	subtalar_angle_l	mtp_angle_l	lumbar_extension	lumbar_bending	lumbar_rotation	arm_flex_r	arm_add_r	arm_rot_r	elbow_flex_r	pro_sup_r	arm_flex_l	arm_add_l	arm_rot_l	elbow_flex_l	pro_sup_l
      3.63750000	    -11.95262967	      1.29440186	      0.85298077	      0.39684011	      0.90929562	      0.00121639	     39.18346630	     -8.27910217	     -3.23612169	     47.09401613	      0.82194564	     13.88013664	    -18.15277028	     -7.49999987	     39.36601304	     -9.03365572	     -8.42315535	     49.56552133	      0.86508154	     11.66823007	     -1.34912816	     -7.49999987	    -36.76318157	     -0.81328140	      0.21412471	     12.54065219	     -9.77592473	     -4.95915508	     22.03242007	     83.37583644	     14.10813643	    -11.17553304	     10.32637791	     19.91269923	     63.78827951
      3.64166670	    -12.42480066	      1.21217697	      0.86377651	      0.39396419	      0.91432372	      0.00264023	     39.39724541	     -8.13810530	     -3.30483138	     46.34029788	      0.80879077	     13.52625128	    -18.05720118	     -7.49999987	     39.44307410	     -8.94567370	     -8.49815795	     48.66111621	      0.84929670	     11.58948431	     -1.27615232	     -7.49999987	    -36.17836602	     -0.73338274	      0.30677059	     12.01738942	     -9.81070878	     -5.05483936	     21.86702531	     83.37952824	     13.63049736	    -11.35915581	     10.28386095	     19.81281388	     63.81593184
      3.64583330	    -12.76848424	      1.21383493	      0.88982987	      0.39604828	      0.91956307	      0.00206898	     39.23498612	     -7.96847622	     -3.13298661	     45.24620967	      0.78969533	     12.44169320	    -18.67414696	     -7.49999987	     39.15375793	     -8.67060745	     -8.44089403	     47.37244241	      0.82680509	     10.87273026	     -1.65360514	     -7.49999987	    -35.71584383	     -0.74541298	      0.15900392	     11.49057447	     -9.59709327	     -5.94748618	     21.47935029	     83.27645626	     12.91951566	    -11.60462875	     10.27312730	     19.95985375	     64.06252839
      3.65000000	    -12.91434474	      1.23960599	      0.90919521	      0.39727943	      0.92119698	     -0.00141059	     38.81707758	     -7.98671890	     -3.19352373	     44.30847186	      0.77332872	     11.81341885	    -18.73379586	     -7.49999987	     38.59519610	     -8.32523963	     -8.58055485	     46.12566942	      0.80504480	     10.54237965	     -1.77175681	     -7.49999987	    -35.48406310	     -0.56594970	      0.18655201	     11.06110764	     -9.58630609	     -6.52597359	     21.31257932	     82.58909233	     12.24177394	    -11.69666221	     10.22948564	     20.12842039	     64.04902529
      3.65416670	    -13.08535904	      1.34863758	      0.76542851	      0.39638359	      0.92250630	     -0.00344675	     38.64518705	     -8.14962513	     -3.27586657	     43.53490527	      0.75982744	     11.11305102	    -18.81141328	     -7.49999987	     38.14146274	     -7.88146792	     -8.62170379	     44.93171214	      0.78420632	     10.21437741	     -2.23214831	     -7.49999987	    -35.19141589	     -0.50378086	      0.14015139	     10.63345180	     -9.66826009	     -7.26734214	     21.13781463	     82.39542160	     11.59438347	    -11.80500985	     10.36212282	     20.34921377	     64.24064603
      3.65833330	    -13.24470189	      1.44933445	      0.71275244	      0.39606066	      0.92499472	     -0.00382757	     38.45365705	     -8.29370515	     -3.21714044	     42.74005267	      0.74595464	     10.59690990	    -18.70295447	     -7.49999987	     37.64879833	     -7.37125663	     -8.56439304	     43.68770809	      0.76249435	      9.86610617	     -2.78499361	     -7.49999987	    -35.02454383	     -0.44329537	      0.37727336	     10.11622972	     -9.50926150	     -9.31642778	     21.36257404	     81.38647795	     11.44555556	    -11.87616796	     12.38160431	     19.95693003	     65.43956815
      3.66250000	    -13.38201132	      1.56859842	      0.65594144	      0.39604589	      0.92655519	     -0.00528344	     38.26229366	     -8.47600789	     -3.14056939	     41.92960099	      0.73180959	     10.18516754	    -18.48996393	     -7.49999987	     37.16815088	     -6.88668523	     -8.58372792	     42.52498493	      0.74220100	      9.67148764	     -3.02529078	     -7.49999987	    -34.88167715	     -0.40449274	      0.12248429	      9.63880824	     -9.48819378	     -9.64961367	     21.53989298	     80.66121114	     10.70014280	    -11.97504974	     12.31149210	     20.41175297	     65.26085849
      3.66666670	    -13.50053895	      1.57204480	      0.54026797	      0.39703688	      0.92720653	     -0.00711110	     38.15256686	     -8.54047879	     -3.14188227	     41.37965012	      0.72221114	      9.54441632	    -18.61554121	     -7.49999987	     36.82268540	     -6.59368759	     -8.52991044	     41.73390224	      0.72839400	      9.68334726	     -3.34521181	     -7.49999987	    -34.67155335	     -0.26873749	      0.08320479	      9.44331409	     -9.42682897	     -9.86661874	     21.18084070	     80.50220605	     10.25228807	    -11.78469846	     12.55708457	     20.16539869	     65.30207591
